<svg xmlns="http://www.w3.org/2000/svg" viewBox="0 0 497.05 472.1"><defs><style>.cls-sleepypigletsvg-1,.cls-sleepypigletsvg-2,.cls-sleepypigletsvg-9{fill:#ffbbb6;}.cls-sleepypigletsvg-2,.cls-sleepypigletsvg-3,.cls-sleepypigletsvg-6,.cls-sleepypigletsvg-9{stroke:#ed8385;}.cls-sleepypigletsvg-10,.cls-sleepypigletsvg-2,.cls-sleepypigletsvg-5,.cls-sleepypigletsvg-6,.cls-sleepypigletsvg-7{stroke-linecap:round;}.cls-sleepypigletsvg-10,.cls-sleepypigletsvg-2,.cls-sleepypigletsvg-9{stroke-linejoin:round;}.cls-sleepypigletsvg-10,.cls-sleepypigletsvg-2,.cls-sleepypigletsvg-7{stroke-width:14px;}.cls-sleepypigletsvg-3{fill:#ff9cd2;stroke-width:15.65px;}.cls-sleepypigletsvg-3,.cls-sleepypigletsvg-5,.cls-sleepypigletsvg-6,.cls-sleepypigletsvg-7{stroke-miterlimit:10;}.cls-sleepypigletsvg-4{fill:#1a1a1a;}.cls-sleepypigletsvg-10,.cls-sleepypigletsvg-5,.cls-sleepypigletsvg-7{fill:none;}.cls-sleepypigletsvg-5{stroke:#fff;stroke-width:20.49px;}.cls-sleepypigletsvg-6{fill:#ff95bc;stroke-width:20px;}.cls-sleepypigletsvg-7{stroke:#1a1a1a;}.cls-sleepypigletsvg-8{fill:#4672c9;}.cls-sleepypigletsvg-9{stroke-width:13.44px;}.cls-sleepypigletsvg-10{stroke:#fcea68;}</style></defs><title>SleepyPiglet</title><g id="Layer_2" data-name="Layer 2"><g id="Layer_7" data-name="Layer 7"><rect class="cls-sleepypigletsvg-1" x="47.13" y="59.51" width="399.38" height="101.19"/></g><g id="Layer_4" data-name="Layer 4"><path class="cls-sleepypigletsvg-2" d="M118.72,65c36.59-25.4,75.09-34.64,129.62-34.64a327,327,0,0,1,50.81,3.51,190.59,190.59,0,0,1,47.69,13.61A183.2,183.2,0,0,1,378,65"/><path class="cls-sleepypigletsvg-2" d="M455.43,152.15h0c17.36,32,26.81,65.47,28,94.79.5,12.42,2.57,87.48-71.74,150-54.34,45.75-85,43.15-163.35,43.48-78.4-.33-109,2.27-163.36-43.48-74.31-62.54-72.24-137.6-71.73-150,1.19-29.32,10.64-62.8,28-94.79h0"/><path class="cls-sleepypigletsvg-3" d="M248.34,255.91c-58.44,0-105.81-4-105.81,31.08s47.37,73.53,105.81,73.53,105.8-38.45,105.8-73.53S306.77,255.91,248.34,255.91Z"/><rect class="cls-sleepypigletsvg-4" x="283.2" y="279.5" width="13.63" height="45.28" rx="6.65"/><rect class="cls-sleepypigletsvg-4" x="199.85" y="279.5" width="13.63" height="45.28" rx="6.65" transform="translate(413.33 604.29) rotate(180)"/><path class="cls-sleepypigletsvg-5" d="M87.14,154.24c-2.42,4.17-5,8.35-7.31,12.93"/><path class="cls-sleepypigletsvg-5" d="M205.28,66.64c-36.9,9.54-70.5,26.81-95.22,55"/><line class="cls-sleepypigletsvg-6" x1="76.65" y1="313.66" x2="106.67" y2="313.66"/><line class="cls-sleepypigletsvg-6" x1="391.13" y1="313.66" x2="421.15" y2="313.66"/><path class="cls-sleepypigletsvg-7" d="M399.53,211.79a21.91,21.91,0,1,1-43.82,0"/><path class="cls-sleepypigletsvg-7" d="M141,211.79a21.91,21.91,0,0,1-43.82,0"/><circle class="cls-sleepypigletsvg-4" cx="318.83" cy="395.59" r="11.97"/><path class="cls-sleepypigletsvg-8" d="M381.17,442.24a22.24,22.24,0,1,1-41.8,15.21c-4.2-11.54,3.94-54.2,3.94-54.2S377,430.7,381.17,442.24Z"/><path class="cls-sleepypigletsvg-9" d="M378,65s10.95-8,22.21-2c14.71,7.93,17.2,29.6,37.81,80.53,2.51,6.22,5.89,14.27,12.15,15.62,9.48,2,19.44-12.58,22.51-17.08,16-23.47,26.44-69.18,7.65-90.3C452.88,21,378,65,378,65Z"/><path class="cls-sleepypigletsvg-9" d="M119.1,65s-10.94-8-22.2-2c-14.71,7.93-17.21,29.6-37.81,80.53-2.52,6.22-5.89,14.27-12.16,15.62-9.48,2-19.43-12.58-22.5-17.08C8.44,118.59-2,72.88,16.77,51.76,44.17,21,119.1,65,119.1,65Z"/><polyline class="cls-sleepypigletsvg-10" points="297.49 50.01 341.59 50.01 297.49 94.12 341.59 94.12"/><polyline class="cls-sleepypigletsvg-10" points="359.37 7 386.93 7 359.37 34.57 386.93 34.57"/></g></g></svg>