<svg xmlns="http://www.w3.org/2000/svg" viewBox="0 0 490.86 454.03"><defs><style>.cls-stokedpigletsvg-1{fill:#ffbbb6;}.cls-stokedpigletsvg-1,.cls-stokedpigletsvg-2,.cls-stokedpigletsvg-3,.cls-stokedpigletsvg-5,.cls-stokedpigletsvg-7{stroke:#ed8385;}.cls-stokedpigletsvg-1,.cls-stokedpigletsvg-2,.cls-stokedpigletsvg-3{stroke-linejoin:round;}.cls-stokedpigletsvg-1,.cls-stokedpigletsvg-2,.cls-stokedpigletsvg-3,.cls-stokedpigletsvg-6{stroke-width:14px;}.cls-stokedpigletsvg-2{fill:#ed8385;}.cls-stokedpigletsvg-3{fill:#ffb0cd;}.cls-stokedpigletsvg-3,.cls-stokedpigletsvg-4,.cls-stokedpigletsvg-5,.cls-stokedpigletsvg-6{stroke-linecap:round;}.cls-stokedpigletsvg-4,.cls-stokedpigletsvg-6{fill:none;}.cls-stokedpigletsvg-4{stroke:#fff;stroke-width:20.49px;}.cls-stokedpigletsvg-4,.cls-stokedpigletsvg-5,.cls-stokedpigletsvg-6,.cls-stokedpigletsvg-7{stroke-miterlimit:10;}.cls-stokedpigletsvg-5{fill:#ff95bc;stroke-width:20px;}.cls-stokedpigletsvg-6{stroke:#1a1a1a;}.cls-stokedpigletsvg-7,.cls-stokedpigletsvg-9{fill:#ff9cd2;}.cls-stokedpigletsvg-7{stroke-width:15.65px;}.cls-stokedpigletsvg-8{fill:#1a1a1a;}</style></defs><title>StokedPiglet</title><g id="Layer_2" data-name="Layer 2"><g id="Layer_4" data-name="Layer 4"><path class="cls-stokedpigletsvg-1" d="M245.43,447c-78.4-.33-109,2.26-163.36-43.48C7.76,341,9.83,266,10.34,253.53c1.19-29.32,10.64-62.8,28-94.79h0c-10.09-7.43-20.57-18.08-26.57-33C7.28,114.6,7,105.2,7,84.41c0-18.54.32-41.85,1.28-69A7,7,0,0,1,16.92,8.9,186.93,186.93,0,0,1,73.27,33.51c26.24,17.07,33.64,25.26,42.55,38,36.58-25.4,75.08-34.64,129.61-34.64s93,9.24,129.61,34.64c8.9-12.78,16.31-21,42.54-38A187.32,187.32,0,0,1,482.26,7c1.21,30.77,1.56,57,1.59,77.41,0,20.79-.28,30.19-4.77,41.35-6,14.9-16.48,25.55-26.56,33h0c17.36,32,26.81,65.47,28,94.79.5,12.42,2.57,87.48-71.74,150C354.44,449.29,323.82,446.7,245.43,447Z"/><path class="cls-stokedpigletsvg-2" d="M454.12,161.74s-13.59-21.61-19.86-40.2C424.87,93.73,425.32,68,455.21,46.2c-2,5.49-12.52,11.94-13.09,22.42-.91,16.75,14.13,19.65,13.56,35.62s-6.91,18.9-7.29,36.56C448.2,149.8,454.12,161.74,454.12,161.74Z"/><path class="cls-stokedpigletsvg-2" d="M36.73,161.74s13.59-21.61,19.87-40.2C66,93.73,65.54,68,35.65,46.2c2,5.49,12.51,11.94,13.09,22.42.91,16.75-14.13,19.65-13.56,35.62s6.91,18.9,7.28,36.56C42.65,149.8,36.73,161.74,36.73,161.74Z"/><line class="cls-stokedpigletsvg-3" x1="375.04" y1="71.55" x2="396.44" y2="89.39"/><line class="cls-stokedpigletsvg-3" x1="115.94" y1="71.55" x2="94.55" y2="89.39"/><path class="cls-stokedpigletsvg-4" d="M84.23,160.83c-2.42,4.17-5,8.35-7.31,12.93"/><path class="cls-stokedpigletsvg-4" d="M202.37,73.23c-36.89,9.54-70.5,26.81-95.22,55"/><line class="cls-stokedpigletsvg-5" x1="73.74" y1="280.59" x2="103.76" y2="280.59"/><line class="cls-stokedpigletsvg-5" x1="388.23" y1="280.59" x2="418.24" y2="280.59"/><path class="cls-stokedpigletsvg-6" d="M352.8,218.38a21.92,21.92,0,0,1,43.83,0"/><path class="cls-stokedpigletsvg-6" d="M94.23,218.38a21.91,21.91,0,0,1,43.82,0"/><path class="cls-stokedpigletsvg-7" d="M245.43,262.5c-58.44,0-105.81-4-105.81,31.08S187,367.11,245.43,367.11s105.8-38.45,105.8-73.53S303.86,262.5,245.43,262.5Z"/><rect class="cls-stokedpigletsvg-8" x="280.29" y="286.09" width="13.63" height="45.28" rx="6.65"/><rect class="cls-stokedpigletsvg-8" x="196.94" y="286.09" width="13.63" height="45.28" rx="6.65" transform="translate(407.51 617.47) rotate(180)"/><path class="cls-stokedpigletsvg-9" d="M306.21,381.35l76.47-41.49a6.71,6.71,0,0,1,9.76,4.43c4.78,21.65-4.15,44.2-22.29,55.79-20.33,13-48,9.51-65.57-8.16A6.7,6.7,0,0,1,306.21,381.35Z"/><path class="cls-stokedpigletsvg-8" d="M338.54,399.46a32.34,32.34,0,0,1,52.13-25.59,54.17,54.17,0,0,0,1.77-29.58,6.71,6.71,0,0,0-9.76-4.43l-76.47,41.49a6.7,6.7,0,0,0-1.63,10.57,54.2,54.2,0,0,0,35.05,15.87A32.25,32.25,0,0,1,338.54,399.46Z"/></g></g></svg>